<?xml version="1.0" encoding="utf-8"?>
<!-- Generator: Adobe Illustrator 23.0.1, SVG Export Plug-In . SVG Version: 6.00 Build 0)  -->
<svg version="1.1" id="Layer_1" xmlns="http://www.w3.org/2000/svg" xmlns:xlink="http://www.w3.org/1999/xlink" x="0px" y="0px"
	 viewBox="0 0 132.6 40" style="enable-background:new 0 0 132.6 40;" xml:space="preserve">
<style type="text/css">
	.st0{fill:#FFFFFF;}
</style>
<g>
	<g>
		<g>
			<path class="st0" d="M10.4,10.3l10.1,4.6H4.8V18h15.8l-7.7,3.7H4.8v3.1h8.1l9.6,4.6h7.2l-10.1-4.6h15.7v-3.1H19.6l7.7-3.7h8v-3.1
				h-8.1l-9.6-4.6C17.6,10.3,10.4,10.3,10.4,10.3z M0.1,19.9C0.1,9,9,0,20,0s19.9,9,19.9,19.9c0,11-8.9,19.9-19.9,19.9
				S0.1,30.9,0.1,19.9"/>
		</g>
	</g>
</g>
<g>
	<path class="st0" d="M49.9,14.5v4.8h4c0.9,0,1.4-0.1,1.8-0.3c0.7-0.3,1-1,1-2c0-1.1-0.3-1.8-1-2.1c-0.4-0.1-1-0.3-1.7-0.3h-4.1
		V14.5z M57.6,11.9c0.7,0.3,1.1,0.7,1.7,1.3c0.4,0.4,0.7,1,0.9,1.6c0.3,0.6,0.3,1.1,0.3,1.8c0,0.9-0.1,1.7-0.6,2.4
		c-0.4,0.9-1.1,1.4-2.1,1.7c0.9,0.3,1.4,0.9,1.7,1.4S60,23.7,60,25v1.1c0,0.9,0,1.4,0.1,1.7c0.1,0.4,0.3,0.9,0.7,1v0.4h-4.1
		c-0.1-0.4-0.1-0.7-0.3-1c-0.1-0.4-0.1-1-0.1-1.6V25c0-1.1-0.1-1.8-0.6-2.3c-0.4-0.4-1.1-0.6-2.1-0.6H50v7h-3.7V11.5h8.5
		C56,11.5,56.9,11.7,57.6,11.9"/>
	<path class="st0" d="M69.6,22.9c-0.3,0.1-0.4,0.3-0.7,0.3c-0.3,0.1-0.6,0.1-0.9,0.3l-0.9,0.1c-0.7,0.1-1.3,0.3-1.6,0.4
		c-0.6,0.3-0.9,0.9-0.9,1.4c0,0.6,0.1,1,0.4,1.3c0.3,0.3,0.7,0.4,1.1,0.4c0.7,0,1.4-0.3,2.1-0.7c0.6-0.4,1-1.3,1-2.4v-1.1H69.6z
		 M67.5,21.2c0.6-0.1,1.1-0.1,1.4-0.3c0.4-0.1,0.7-0.6,0.7-1c0-0.6-0.1-0.9-0.6-1.1c-0.4-0.1-1-0.3-1.7-0.3c-0.9,0-1.4,0.1-1.7,0.6
		c-0.3,0.3-0.4,0.7-0.4,1.1H62c0.1-1.1,0.4-2.1,1-2.8c0.9-1.1,2.4-1.7,4.7-1.7c1.4,0,2.7,0.3,3.8,0.9c1.1,0.6,1.7,1.7,1.7,3.3v6
		c0,0.4,0,0.9,0,1.6c0,0.4,0.1,0.7,0.1,0.9c0.1,0.1,0.3,0.3,0.6,0.4v0.6H70c-0.1-0.3-0.1-0.6-0.3-0.7c0-0.3-0.1-0.6-0.1-0.9
		c-0.4,0.6-1,1-1.7,1.3c-0.7,0.4-1.6,0.6-2.6,0.6c-1.1,0-2.1-0.3-3-1c-0.7-0.7-1.1-1.7-1.1-2.8c0-1.6,0.6-2.8,1.8-3.5
		c0.7-0.4,1.7-0.7,3-0.9L67.5,21.2z"/>
	<g>
		<path class="st0" d="M93.6,20.7c0-0.4-0.3-1-0.4-1.3c-0.4-0.6-1-0.9-1.8-0.9c-1.1,0-2,0.6-2.4,1.7c-0.3,0.6-0.3,1.4-0.3,2.4
			s0.1,1.7,0.3,2.3c0.4,1.1,1.1,1.7,2.3,1.7c0.9,0,1.4-0.3,1.7-0.7c0.3-0.4,0.6-1,0.6-1.7H97c-0.1,1-0.4,2-1.1,3
			c-1.1,1.6-2.7,2.3-4.8,2.3s-3.7-0.6-4.7-1.8c-1-1.3-1.6-2.8-1.6-4.8c0-2.3,0.6-4,1.7-5.2c1.1-1.3,2.6-1.8,4.5-1.8
			c1.7,0,3,0.4,4,1.1c1,0.7,1.7,2,1.8,4h-3.3V20.7z"/>
		<path class="st0" d="M106.2,22.9c-0.3,0.1-0.4,0.3-0.7,0.3c-0.3,0.1-0.6,0.1-0.9,0.3l-0.7,0.1c-0.7,0.1-1.3,0.3-1.6,0.4
			c-0.6,0.3-0.9,0.9-0.9,1.4s0.1,1,0.4,1.3c0.3,0.3,0.7,0.4,1.1,0.4c0.7,0,1.4-0.3,2.1-0.7c0.6-0.4,1-1.3,1-2.4
			C106.2,24,106.2,22.9,106.2,22.9z M104.1,21.2c0.6-0.1,1.1-0.1,1.4-0.3c0.4-0.1,0.7-0.6,0.7-1c0-0.6-0.1-0.9-0.6-1.1
			c-0.4-0.1-1-0.3-1.7-0.3c-0.9,0-1.4,0.1-1.7,0.6c-0.3,0.3-0.4,0.7-0.4,1.1h-3.4c0.1-1.1,0.4-2.1,1-2.8c0.9-1.1,2.4-1.7,4.7-1.7
			c1.4,0,2.7,0.3,3.8,0.9c1.1,0.6,1.7,1.7,1.7,3.3v6c0,0.4,0,0.9,0,1.6c0,0.4,0.1,0.7,0.1,0.9c0.1,0.1,0.3,0.3,0.6,0.4v0.6h-3.7
			c-0.1-0.3-0.1-0.6-0.3-0.7c0-0.3-0.1-0.6-0.1-0.9c-0.4,0.6-1,1-1.7,1.3c-0.7,0.4-1.6,0.6-2.6,0.6c-1.1,0-2.1-0.3-3-1
			c-0.7-0.7-1.1-1.7-1.1-2.8c0-1.6,0.6-2.8,1.8-3.5c0.7-0.4,1.7-0.7,3-0.9L104.1,21.2z"/>
		<path class="st0" d="M119.1,15.8c0,0,0.1,0,0.3,0v3.5c-0.3,0-0.4,0-0.6,0s-0.3,0-0.4,0c-1.4,0-2.3,0.4-2.8,1.3
			c-0.3,0.6-0.4,1.3-0.4,2.3v6.2h-3.4v-13h3.3v2.3c0.6-0.9,1-1.4,1.4-1.8c0.7-0.6,1.4-0.9,2.6-0.9C119,15.8,119.1,15.8,119.1,15.8"
			/>
		<path class="st0" d="M128.5,25.6c0.6-0.7,0.7-1.7,0.7-2.8c0-1.6-0.4-2.7-1.3-3.4c-0.6-0.4-1.1-0.6-1.7-0.6c-1,0-1.7,0.4-2.3,1.1
			c-0.4,0.7-0.7,1.7-0.7,2.8c0,1.3,0.3,2.1,0.7,2.8c0.4,0.7,1.1,1.1,2.1,1.1C127.2,26.7,127.9,26.3,128.5,25.6 M127.6,16.3
			c0.6,0.3,1.1,0.9,1.6,1.4v-6.2h3.4v17.7h-3.3v-1.8c-0.4,0.7-1,1.3-1.7,1.7c-0.6,0.3-1.4,0.6-2.3,0.6c-1.6,0-2.8-0.6-3.8-1.8
			c-1-1.3-1.6-2.8-1.6-4.8c0-2.3,0.6-4,1.6-5.2c1-1.3,2.4-2,4.1-2C126.4,15.8,127.1,15.9,127.6,16.3"/>
	</g>
	<path class="st0" d="M74.9,16.1h3.4v13h-3.4V16.1z M78.3,14.5h-3.4v-3.1h3.4V14.5z"/>
	<rect x="80.3" y="11.5" class="st0" width="3.4" height="17.7"/>
</g>
</svg>
